<?xml version="1.0" encoding="utf-8"?>
<!-- Generator: Adobe Illustrator 19.1.0, SVG Export Plug-In . SVG Version: 6.00 Build 0)  -->
<svg version="1.1" xmlns="http://www.w3.org/2000/svg" xmlns:xlink="http://www.w3.org/1999/xlink" x="0px" y="0px"
	 viewBox="0 0 300 300" style="enable-background:new 0 0 300 300;" xml:space="preserve">
<style type="text/css">
	.st0{display:none;}
	.st1{display:inline;stroke:#000000;stroke-width:1.3239;stroke-miterlimit:10;}
	.st2{fill:none;stroke:#FFFFFF;stroke-width:5;stroke-miterlimit:10;}
	.st3{fill:#FFFFFF;}
	.st4{font-family:'NeoTech-Light';}
	.st5{font-size:63.1376px;}
</style>
<g id="Layer_1" class="st0">
	<rect x="1.3" class="st1" width="298.7" height="304.8"/>
</g>
<g id="Layer_2">
	<polyline class="st2" points="153,60.5 60,60.5 16,138.5 153,275 	"/>
	<polyline id="left" class="st2" points="153,60.5 60,60.5 16,138.6 154.6,276.7 	"/>
	<polyline id="right" class="st2" points="129,100.3 153,60.5 246,60.5 291,138.5 151.5,277.1 	"/>
	<line id="top1" class="st2" x1="60" y1="60.5" x2="82.3" y2="98.3"/>
	<line id="top3" class="st2" x1="174.3" y1="99.7" x2="153" y2="60.5"/>
	<line id="top4" class="st2" x1="221.7" y1="99" x2="246" y2="60.5"/>
	<path class="st2" d="M256.3,137"/>
	<line id="r-m" class="st2" x1="291" y1="138.5" x2="247" y2="138.5"/>
	<line id="l-m" class="st2" x1="17" y1="138.5" x2="62" y2="138.5"/>
	<line id="r-b" class="st2" x1="115.7" y1="165.3" x2="153" y2="275"/>
	<line id="l-b" class="st2" x1="189" y1="164.3" x2="153" y2="276.3"/>
	<text transform="matrix(1 0 0 1 72.2557 156.3569)" class="st3 st4 st5">MORE</text>
</g>
</svg>
